<svg xmlns="http://www.w3.org/2000/svg" xml:space="preserve" width="2048" height="2048" style="shape-rendering:geometricPrecision;text-rendering:geometricPrecision;image-rendering:optimizeQuality;fill-rule:evenodd;clip-rule:evenodd"><defs><style>.fil1{fill:none}.fil2{fill:#fffffe;fill-rule:nonzero}</style></defs><g id="Layer_x0020_1"><path style="fill:#607d8b" d="M0 0h2048v2048H0z"/><path class="fil1" d="M255.999 255.999h1536v1536h-1536z"/><g id="_489950848"><path id="_489950944" class="fil2" d="M1042.4 555.362c132.175 0 251.843 53.58 338.468 140.203 86.623 86.624 140.203 206.293 140.203 338.468 0 132.176-53.578 251.844-140.203 338.466-86.622 86.624-206.293 140.203-338.468 140.203-132.178 0-251.848-53.578-338.469-140.201-86.622-86.622-140.201-206.291-140.201-338.469 0-132.175 53.578-251.845 140.202-338.469 86.623-86.623 206.291-140.202 338.468-140.202zm298.744 179.927c-76.454-76.453-182.075-123.742-298.744-123.742-116.668 0-222.291 47.288-298.744 123.741-76.453 76.453-123.741 182.077-123.741 298.745 0 116.669 47.288 222.294 123.739 298.745 76.45 76.452 182.075 123.739 298.745 123.739 116.668 0 222.292-47.288 298.745-123.741s123.741-182.075 123.741-298.744c0-116.668-47.289-222.29-123.742-298.744z"/><path id="_489950896" class="fil2" d="M1042.4 707.158c90.259 0 171.979 36.59 231.132 95.741 59.152 59.154 95.741 140.874 95.741 231.132 0 90.26-36.589 171.978-95.741 231.131-59.153 59.152-140.874 95.742-231.132 95.742-90.259 0-171.979-36.59-231.132-95.742-59.152-59.153-95.741-140.873-95.741-231.13 0-90.26 36.589-171.98 95.741-231.133 59.153-59.152 140.874-95.741 231.132-95.741zm191.408 135.465c-48.983-48.983-116.658-79.28-191.408-79.28-74.75 0-142.426 30.297-191.408 79.28-48.983 48.983-79.28 116.658-79.28 191.408 0 74.75 30.297 142.425 79.28 191.407 48.983 48.983 116.658 79.28 191.408 79.28 74.75 0 142.426-30.297 191.408-79.28 48.983-48.983 79.28-116.656 79.28-191.407 0-74.75-30.297-142.426-79.28-191.408z"/></g><g id="_489950584"><path id="_489950776" class="fil2" d="M465.079 791.6c32.372-7.651 59.943-29.54 78.48-59.721 19.15-31.176 28.695-70.914 24.368-113.235v-.376c-5.102-55.89-24.785-123.04-54.104-172.713-20.704-35.076-44.966-60.057-69.45-61.363-24.455 1.305-48.67 26.245-69.346 61.273-29.33 49.69-49.027 116.884-54.208 172.802v.25c-4.332 43.008 5.477 83.244 25.06 114.51 18.927 30.217 47.036 51.924 80.025 59 3.626.773 11.632 1.136 20.107 1.048 7.687-.079 15.092-.562 18.943-1.476h.125zm132.982-26.47c-27.318 44.474-68.86 76.956-118.364 88.693l.007.028c-7.92 1.882-20.712 2.847-33.191 2.977-12.884.133-26.216-.668-33.858-2.299-50.41-10.814-92.8-43.08-120.777-87.75-26.824-42.824-40.336-97.165-34.559-154.51l.024.001c6.007-64.4 28.775-141.859 62.683-199.306 31.4-53.196 73.403-91.047 123.473-92.563h1.75c50.092 1.516 92.15 39.411 123.577 92.653 33.886 57.411 56.634 134.757 62.567 199.093l.036-.003c5.804 56.76-7.257 110.478-33.367 152.986z"/><path id="_489950680" class="fil2" d="M428.807 1656.21c-.019.444-.033-.074-.032.222.02 3.248 2.062 7.615 5.484 11.658 2.831 3.346 6.242 5.796 9.5 5.94.523.022.285.038.49.037h.25c.261.001-.11-.016.48-.044 3.284-.155 6.713-2.618 9.551-5.974 3.4-4.019 5.43-8.342 5.447-11.54.002-.346-.014.299-.036-.174v-.5l-14.938-440.155c-.407.056-.81.15-1.203.28l-14.993 439.875v.375zm-63.783.472a73.928 73.928 0 0 1 .032-3.222h.013l15.07-442.18v-1.5c2.137-26.541 18.5-44.24 38.98-52.661 8.434-3.47 17.655-5.236 26.788-5.253 9.307-.016 18.644 1.798 27.117 5.49 19.36 8.443 34.069 25.468 35.591 51.463v.75l15.06 443.768.017-.001c.033.712.045 1.868.037 3.424-.102 17.798-7.715 37.49-20.448 52.541-13.293 15.714-32.496 27.387-55.302 28.474-.78.037-1.992.051-3.6.045a72.934 72.934 0 0 1-3.37-.039c-22.9-1.01-42.167-12.681-55.501-28.44-12.747-15.062-20.368-34.798-20.484-52.658z"/><path id="_489950632" class="fil2" d="M475.498 826.508v352.052h-64.002V826.508z"/></g><path class="fil2" d="M1641.24 1653.08c-.02.484-.032.243-.032.436.026 3.966 2.225 9.054 5.91 13.581 2.82 3.467 6.107 5.997 9.092 6.122.501.021.296.033.472.033h.25c.239.001-.088-.015.451-.039 3.018-.137 6.324-2.677 9.152-6.152 3.664-4.505 5.854-9.55 5.877-13.465 0-.24-.014.122-.037-.39v-.375l-14.981-460.263c-.36.074-.728.19-1.095.346l-.025-.057-15.034 459.974v.25zm-63.783.686c-.007-1.409.003-2.474.032-3.185h.008l15.076-461.228v-1.375c2.085-27.064 18.368-45.176 38.724-53.815 8.465-3.593 17.76-5.423 27.018-5.447 9.34-.023 18.708 1.85 27.232 5.666 19.318 8.65 34.019 26.03 35.5 52.435v.75l15.067 462.889h.012c.033.735.045 1.88.037 3.39-.109 18.03-7.603 38.075-20.126 53.467-13.362 16.421-32.758 28.595-55.904 29.652-.73.033-1.84.046-3.32.04a75.367 75.367 0 0 1-3.102-.034c-23.24-.982-42.697-13.154-56.096-29.621-12.537-15.407-20.039-35.495-20.158-53.583zm78.842-460.852.02-.185-.04-.004-.005.133.025.056z"/><path class="fil2" d="M1688.81 342.051c0-17.673-14.328-32-32-32-17.674 0-32.002 14.327-32.002 32v813.129c0 17.673 14.328 32 32.001 32s32.001-14.327 32.001-32V342.051z"/><path class="fil2" d="M1656.93 818.311a31.736 31.736 0 0 0 14.935-3.777l-6.72-58.87a31.888 31.888 0 0 0-8.215-1.102l-.125 31.873.125 31.876zm14.935-3.777a32.042 32.042 0 0 0 12.115-11.433l-16.994-46.88c-.606-.204-1.22-.39-1.841-.557l6.72 58.87zm12.115-11.433a31.734 31.734 0 0 0 4.7-16.79c-.055-14.002-9.128-25.858-21.694-30.09l16.994 46.88zm-27.175-48.54-.125-.001c-2.365.01-5.151-.153-8.033-.49-1.111-.13-.866.122-1.239-.012-18.607-6.728-34.258-27.709-45.354-57.348-13.114-35.023-18.952-80.525-15.674-129.595l.055.004a33.12 33.12 0 0 0 .07-2.34l1.518-25.301c3.195-53.155 6.91-114.957 9.168-162.758.828-17.605-12.771-32.548-30.376-33.376-17.604-.828-32.547 12.771-33.375 30.376-2.092 44.302-5.896 107.578-9.168 162.007l-1.514 25.243c-.078.622-.14 1.248-.183 1.88l.07.005v.006h-.016c-3.87 57.92 3.45 112.771 19.673 156.1 17.604 47.02 46.15 81.649 83.355 95.1 4.689 1.701 10.139 2.854 15.74 3.512 4.403.516 9.801.758 15.408.739 5.606.019 11.006-.223 15.408-.74 5.6-.657 11.051-1.81 15.74-3.51 37.204-13.45 65.75-48.08 83.355-95.1 16.224-43.328 23.543-98.18 19.673-156.102l-.016.002v-.006l.07-.005a32.68 32.68 0 0 0-.183-1.88l-1.521-25.362c-3.27-54.403-7.07-117.617-9.16-161.89-.829-17.604-15.772-31.203-33.376-30.375-17.605.828-31.204 15.771-30.376 33.376 2.255 47.762 5.967 109.51 9.16 162.64l1.525 25.42a33.12 33.12 0 0 0 .071 2.34l.055-.004c3.278 49.072-2.56 94.574-15.674 129.597-11.096 29.638-26.746 50.62-45.354 57.346-.372.134-.129-.117-1.239.013-2.882.336-5.67.498-8.033.489h-.125zm-.125.001.125 31.873-.125 31.876a31.736 31.736 0 0 1-14.935-3.777l6.72-58.87a31.25 31.25 0 0 0-1.841.558L1629.63 803.1a32.041 32.041 0 0 0 12.115 11.433l6.72-58.87a31.888 31.888 0 0 1 8.215-1.102zm-10.056 1.66L1629.63 803.1a31.734 31.734 0 0 1-4.7-16.79c.055-14.002 9.128-25.858 21.694-30.09z"/><path class="fil1" d="M256 256h1536v1536H256z"/></g></svg>